Patient4_TMGait_0pt4_03_left_22_EMG.mot
version=1
nRows=13
nColumns=33
inDegrees=no
endheader
time	1LAddLong	2LGlutMax	3LGlutMed	4LIliopsoas	5LSemiMemb	6LBicFemLong	7LRecFem	8LVastMed	9LVastLat	10LGasMed	11LTibAnt	12lTibPost	13LPeroneusLong	14LSol	15LExtDigLong	16LFlexDigLong	17RAddLong	18RGlutMax	19RGlutMed	20RIliopsoas	21RSemiMemb	22RBicFemLong	23RRecFem	24RVastMed	25RVastLat	26RGasMed	27RTibAnt	28RTibPost	29RPeroneusLong	30RSol	31RExtDigLong	32RFlexDigLong
30.193	0.007629	-0.056152	-0.031128	0.001984	0.013885	-0.062714	0.04715	0.006714	0.023804	-0.006714	0.013275	0.007935	0.019226	-0.099335	0.073853	0.00946	0.000305	-0.16007	-0.16098	-0.053558	-0.019226	0.007172	-0.053558	0.009918	0.13825	0.007629	-0.06012	-0.007172	0.20554	-0.26581	0.004425	-0.007629
30.194	0.007629	-0.077515	0.058289	-0.001678	0.005341	-0.073547	0.043488	0.004578	0.01297	-0.012665	-0.007629	0.005798	0.03067	-0.077362	0.030823	0.011139	0.010529	-0.12817	-0.040131	-0.1207	-0.019379	-0.021362	-0.036011	-0.015717	0.12772	0.000916	-0.028687	-0.00351	0.15137	-0.23865	0.005646	-0.005188
30.195	-0.004272	-0.093536	0.076141	-0.003815	0.002441	-0.047302	0.036469	0.005798	0.032959	-0.009308	-0.092468	0.004272	0.02594	-0.084229	-0.003052	0.007935	0.036316	-0.16159	0.17746	-0.024261	-0.024109	-0.020142	0.049133	-0.044403	0.09079	-0.003967	-0.27374	-0.00412	0.19989	-0.12894	0.006409	-0.002747
30.196	-0.001984	-0.1091	0.076141	0.005646	-0.0177	-0.034332	0.043488	0.008545	0.04303	-0.001068	-0.079498	0.007019	0.004578	-0.066986	0.021362	0.019226	0.009766	-0.14954	-0.022278	0.11261	-0.023346	-0.003357	0.16525	-0.03891	0.15595	-0.003662	-0.037842	-0.009766	0.054932	0.030823	0.007019	0.003052
30.197	-0.021667	-0.066986	0.023346	0.012817	0.027161	0.039978	0.031891	0.003967	0.04837	-0.00061	-0.093994	0.006714	-0.014343	-0.056458	0.033569	0.007935	0.02182	-0.17364	-0.42893	0.14313	-0.017548	0.009766	0.35034	-0.13473	0.38162	-0.013123	-0.072479	-0.003662	-0.1506	0.056	0.001526	-0.00946
30.198	-0.012817	-0.088654	-0.002289	0.010529	0.016632	0.06897	0.044861	0.009155	0.055237	-0.001678	-0.10407	0.009766	0.012665	-0.089417	0.032196	0.015869	0.016785	-0.17502	-0.39093	0.02533	-0.010223	0.019684	0.36377	-0.25574	0.33997	-0.023193	-0.19714	-0.004578	-0.37643	0.04715	0.003662	-0.012054
30.199	-0.007935	-0.077972	0.002747	0.011597	-0.026703	0.065002	0.03006	0.003357	0.057831	-0.01236	-0.041656	0.007019	0.023346	-0.12054	0.039978	0.012817	0.012054	-0.17609	-0.045013	0.02533	0.001831	0.037689	0.49698	-0.37827	0.25696	-0.025787	0.034027	-0.002289	-0.57312	-0.015259	0.003967	-0.011444
30.2	-0.008392	-0.088806	0.012054	0.012054	-0.16235	-0.034637	0.037231	0.002747	0.062714	-0.018005	0.026398	-0.00061	-0.001831	-0.18265	0.13473	0.020599	0.028839	-0.13809	0.23789	0.067902	-0.008087	0.016327	0.45624	-0.40756	0.1506	-0.016785	0.32852	-0.004425	-0.041351	-0.096741	0.00473	-0.010071
30.201	0.008698	-0.089569	-0.010529	0.006866	-0.18707	-0.15701	0.04303	-0.002594	0.07309	0.003052	0.080109	0.005951	-0.005035	-0.12024	0.22522	0.010071	0.005951	-0.11902	-0.000458	0.010986	-0.004425	0.026855	0.29831	-0.27939	0.093384	-0.008545	0.45837	-0.003967	0.13062	-0.13031	0.001984	-0.005341
30.202	0.01297	-0.095673	-0.006561	0.005646	-0.017395	-0.1088	0.027771	0.004425	0.072479	-0.002441	0.20767	0.011139	-0.024109	-0.087128	0.002441	-0.001221	0.01358	-0.090485	0.15778	-0.10849	0.005646	0.03891	0.056915	-0.067139	0.059204	-0.015717	0.62134	-0.005035	-0.23117	-0.06485	0.002899	-0.009918
30.203	0.015411	-0.093384	-0.018005	0.002441	0.09552	-0.12833	0.031128	-0.001068	0.076141	-0.021973	0.21561	0.00412	-0.001678	-0.045166	-0.036011	0.027313	-0.000458	-0.10666	0.19577	-0.1506	0.010071	0.02243	-0.22385	0.21011	-0.058746	-0.007782	0.36758	-0.005035	-0.60623	-0.068512	-0.00351	-0.009003
30.204	0.012054	-0.059052	-0.014954	0.003357	0.088043	-0.086823	0.028076	-0.00061	0.072327	-0.030365	0.1268	0.007324	-0.007172	-0.016937	-0.15793	-0.008698	-0.014038	-0.090485	0.215	-0.13992	0.013428	0.022736	-0.32974	0.13489	-0.25833	-0.006104	-0.63187	-0.003815	0.522	-0.18906	0.002594	0.001221
30.205	0.004883	-0.034943	-0.032196	0.01297	0.033722	-0.065002	0.028687	0.00412	0.077209	-0.012207	0.03006	0	-0.017548	-0.021973	-0.14282	0.007019	-0.005188	-0.13596	0.85358	-0.11841	0.006256	0.029449	-0.3508	0.21729	-0.31799	-0.003662	-0.65262	-0.003204	0.31006	-0.16495	-0.001984	-0.000458
